# xmcd
#
# Track frame offsets: 
#        150
#        12665
#        25613
#        36736
#        50488
#        63831
#        76111
#        87085
#        101896
#        111915
#        124798
#        137106
#        151191
#        163386
#        175526
#        186950
#        200098
#        212786
#        224508
#        236610
#        249389
#        263187
#        274610
#        287906
#        299624
#        309578
#
# Disc length: 4268 seconds
#
# Revision: 0
# Processed by: cddbd v1.5.2PL0 Copyright (c) Steve Scherf et al.
# Submitted via: ExactAudioCopy v0.99pb5
#
DISCID=8c10aa1a
DTITLE=Various Artist - History of Rhythm and Blues 1942-1952 [CD3]
DYEAR=2012
DGENRE=R&B
TTITLE0=Wynonie Harris - Good Rockin' Tonight
TTITLE1=Wild Bill Moore - Rock and Roll
TTITLE2=Roy Brown - Butcher Pete
TTITLE3=Louis Jordan - Saturday Night Fish Fry
TTITLE4=Hal Singer - Rock Around the Clock
TTITLE5=Goree Carter - Rock a While
TTITLE6=Ralph Willis - I'm Gonna Rock
TTITLE7=Stick McGhee - Drinkin' Wine Spo-Dee-O-Dee
TTITLE8=Lost John Hunter - Cool Down Mama
TTITLE9=Jackie Brenston - Rocket 88
TTITLE10=Howlin' Wolf - How Many More Years
TTITLE11=Rosco Gordon - Booted
TTITLE12=Tiny Bradshaw - Well Oh Well
TTITLE13=Wynonie Harris - Good Morning Judge
TTITLE14=Arthur Crudup - My Baby Left Me
TTITLE15=The Larks - Eyesight to the Blind
TTITLE16=Elmore James - Dust My Broom
TTITLE17=Jimmy Witherspoon - Two Little Girls
TTITLE18=Amos Milburn - Let's Rock Awhile
TTITLE19=Little Willie Littlefield  - Rockin' Chair Mama
TTITLE20=Joe Liggins - Pink Champagne
TTITLE21=The Dominoes - Sixty Minute Man
TTITLE22=Fluffy Hunter - Walk Right In
TTITLE23=The Sawallows - It Ain't the Meat
TTITLE24=Bullmoose Jackson - Big Ten Inch
TTITLE25=Treniers - Go Go Go
EXTD=
EXTT0=
EXTT1=
EXTT2=
EXTT3=
EXTT4=
EXTT5=
EXTT6=
EXTT7=
EXTT8=
EXTT9=
EXTT10=
EXTT11=
EXTT12=
EXTT13=
EXTT14=
EXTT15=
EXTT16=
EXTT17=
EXTT18=
EXTT19=
EXTT20=
EXTT21=
EXTT22=
EXTT23=
EXTT24=
EXTT25=
PLAYORDER=
